<svg width="17" height="17" viewBox="0 0 17 17" fill="none" xmlns="http://www.w3.org/2000/svg">
<path d="M12.99 15.5401C12.985 15.5401 12.98 15.5401 12.975 15.5401C10.57 15.4613 7.75252 13.1301 5.81127 11.1876C3.86752 9.24506 1.53627 6.42631 1.46127 4.03256C1.43377 3.19256 3.49502 1.69881 3.51627 1.68381C4.05127 1.31131 4.64502 1.44381 4.88877 1.78131C5.05377 2.01006 6.61627 4.37756 6.78627 4.64631C6.96252 4.92506 6.93627 5.34006 6.71627 5.75631C6.59502 5.98756 6.19252 6.69506 6.00377 7.02506C6.20752 7.31506 6.74627 8.02631 7.85877 9.13881C8.97252 10.2513 9.68252 10.7913 9.97377 10.9951C10.3038 10.8063 11.0113 10.4038 11.2425 10.2826C11.6525 10.0651 12.065 10.0376 12.3463 10.2101C12.6338 10.3863 14.995 11.9563 15.2125 12.1076C15.395 12.2363 15.5125 12.4563 15.5363 12.7126C15.5588 12.9713 15.4788 13.2451 15.3125 13.4838C15.2988 13.5038 13.8225 15.5401 12.99 15.5401Z" fill="#757475"/>
</svg>
